<svg id="Layer_1" data-name="Layer 1" xmlns="http://www.w3.org/2000/svg" viewBox="0 0 50.8 88.71"><defs><style>.cls-1{fill:#cc0b5b;}.cls-2{fill:#6e6f70;}</style></defs><path class="cls-1" d="M20,39c.45,2.77,1.55,5,3.51,6.27a10.49,10.49,0,0,0,2.46.94A3,3,0,0,0,28.24,46a2.65,2.65,0,0,0,.77-.53A10.74,10.74,0,0,0,32.34,41a4.8,4.8,0,0,0,.4-2.26c.58,0,1.14-.06,1.7-.06,2.63,0,5.27,0,7.89-.09,2.2-.06,4.38-.18,6.58-.26.12,0,.26.05.37.05a.91.91,0,0,0,.47-.05.75.75,0,0,1,1.1.58,3.21,3.21,0,0,1,.07.83c0,1.79-.09,3.56-.09,5.35,0,1.39.14,2.8.07,4.18a27.75,27.75,0,0,1-1,6.53c-.45,1.53-.85,3.09-1.27,4.65a16.53,16.53,0,0,1-5.08,8.27,21,21,0,0,1-7,4.2A42,42,0,0,1,29.76,75a12,12,0,0,1-2.08.06,26.37,26.37,0,0,1-10-1.53,22.66,22.66,0,0,1-5.55-2.47,20.36,20.36,0,0,1-4.07-3.82,40.5,40.5,0,0,1-3.91-5.71A22.73,22.73,0,0,1,1.91,55a27.72,27.72,0,0,1-.63-8c.09-1,.05-2.11.07-3.14,0-.3,0-.62.07-.92,0-.11.07-.32,0-.38-.33-.47,0-.76.09-1.18.26-1,.87-1,1.52-1.08s1.39-.21,2.06-.3l4.1-.53a2.73,2.73,0,0,0,.66-.23,1.66,1.66,0,0,1,1.26,0,4.14,4.14,0,0,0,1.57,0c.93,0,1.85-.06,2.78-.12C16.73,39.06,18,39,19.25,39A2.09,2.09,0,0,1,20,39ZM26.67,69.8a8.88,8.88,0,0,0,3.26-.52,4.38,4.38,0,0,0,2.29-1.36c.56-.65,1.12-1.29,1.62-2a7.4,7.4,0,0,0,1.28-2.5,8.07,8.07,0,0,0,.17-1.32.49.49,0,0,0-.21-.36c-.4-.17-.75-.47-1.22-.29s-1.19.06-1.33,1.06a1.51,1.51,0,0,1-.31.62,22.75,22.75,0,0,1-1.45,1.94,4.54,4.54,0,0,1-3.58,1.56,15,15,0,0,1-3.56-.56,8.41,8.41,0,0,1-4.52-2.56c-.09-.12-.21-.24-.32-.24-.31,0-.61,0-.92.06a6.86,6.86,0,0,0,.12.91,7.24,7.24,0,0,0,2.58,3.48A11.75,11.75,0,0,0,26.67,69.8Zm0,3.21a.32.32,0,0,0,0,.12c.26,0,.54,0,.87,0-.07-.21-.14-.32-.19-.47ZM12.79,67.16c-.16-.62-.23-.68-.67-.44Z"/><path class="cls-1" d="M19.32,13.35a10.33,10.33,0,0,1,1.62.47,6,6,0,0,1,3.7,4.38,8.73,8.73,0,0,1-.4,4.83,23.05,23.05,0,0,1-2.32,4.82,2.31,2.31,0,0,0-.25.68,3.46,3.46,0,0,1-1.13,2,25.86,25.86,0,0,1-2.43,1.71c-.94.59-1.92,1.06-2.86,1.59a21.43,21.43,0,0,1-7.51,2.44A11.45,11.45,0,0,1,5,36.09,27.51,27.51,0,0,1,2,35.68a2.31,2.31,0,0,1-.93-.53,1.83,1.83,0,0,1-.28-.68c0-.06,0-.17,0-.23a12.73,12.73,0,0,1-.52-4.48C.18,25.85.2,21.94.18,18c0-.33-.14-.65-.16-1a2.63,2.63,0,0,1,0-.79c0-.26.16-.5.16-.76V5.93c0-1.14,0-2.29,0-3.44a1,1,0,0,1,.75-1C1.89,1.2,2.78.87,3.69.64a22.47,22.47,0,0,1,7.84-.5,22,22,0,0,1,5.78,1.38A6.91,6.91,0,0,1,20.49,4.2a7.28,7.28,0,0,1,0,7.35C20.17,12.17,19.75,12.73,19.32,13.35Zm-2.22,9.5c.8.09.87,0,1.1-.94,0-.12.07-.21.09-.32.24-.74,0-1.24-.65-1.24s-1.05.12-1.57.18l-2.36.35c-.75.12-1.52.26-2.27.41-1,.18-1.9.38-2.86.62-.12,0-.23.24-.33.38.14.18.24.44.4.5a2.18,2.18,0,0,0,.87.12l4.94-.09C15.37,22.85,16.24,22.85,17.1,22.85ZM14.88,9.76V9.7h1.17a.64.64,0,0,0,.65-.59c.05-.2.12-.41.19-.62.3-.88-.23-1.2-.72-1.17-.87.06-1.74.2-2.6.26-1.34.09-2.69.12-4.05.21-.82.06-1.62.17-2.44.29-.42.06-.51.38-.21.77a.66.66,0,0,0,.47.23c1.05.12,2.13.21,3.18.3C12,9.55,13.43,9.67,14.88,9.76Z"/><path class="cls-1" d="M48.11,21.26c.49-.15,1-.26,1.52-.41V27c0,.65.1,1.29.12,1.91,0,.44,0,.85-.07,1.3s-.09,1-.12,1.5a.87.87,0,0,0,.14.41,1.19,1.19,0,0,1-.37,1.73,6.68,6.68,0,0,1-4,.86c-3.88.11-7.77.17-11.65.29-.73,0-1.45.12-2.15.15-.5,0-1,.06-1.5.06s-.63-.44-.7-.89a16.42,16.42,0,0,1-.24-1.85c-.16-2.44-.33-4.91-.49-7.35-.12-1.86-.23-3.68-.33-5.54-.07-1.29-.14-2.58-.19-3.88-.07-2.79-.16-5.56-.16-8.35,0-1.48.12-2.95.24-4.42,0-.76.3-.85.86-.67.28.08.63-.09.94-.12,1.33-.15,2.67-.35,4-.47q4.64-.4,9.27-.77C44.49.79,45.77.61,47.06.61c1,0,1.22.23,1.33,1.26.21,1.65.43,3.3.64,5-1.31-.15-2.56-.36-3.8-.42a17.76,17.76,0,0,0-2.52.15c-.57,0-1.13,0-1.71,0a10.14,10.14,0,0,0-1.36.21c-.26.06-.35.29-.3.61C39.5,8.52,40,9,40.93,8.82s1.61-.21,2.43-.3c1.27-.14,2.51-.32,3.77-.47.66-.09,1.29-.12,2-.2.16,4,.33,8,.49,12.06H48l-.11.06c-.4,0-.78-.12-1.17-.12-1.29,0-2.58-.06-3.87,0-.86.06-1.75.23-2.62.38-.44.09-.56.38-.4.88a4,4,0,0,0,.38.89c.33.59.79.38,1.24.26a19.46,19.46,0,0,1,4.12-.67c.68,0,1.33-.18,2-.27H48Z"/><path class="cls-2" d="M5.88,81.35c0-1.08,0-1.28,0-1.51s-.07-.36-.31-.41l-.27,0c-.08,0-.12,0-.12-.06s0-.07.15-.07c.38,0,.83,0,1,0,.35,0,.62,0,.87,0,1.28,0,1.51.69,1.51,1.07A1.57,1.57,0,0,1,8,81.6a1.72,1.72,0,0,1,1.29,1.53c0,.76-.59,1.55-1.9,1.55l-1,0-.89,0c-.1,0-.15,0-.15-.07s0-.06.12-.06a.85.85,0,0,0,.25,0c.14,0,.18-.18.21-.39s0-.86,0-1.51V81.35Zm.86.12h0s0,.07,0,.08l.33,0a.69.69,0,0,0,.51-.14.9.9,0,0,0,.29-.75c0-.48-.27-1.1-.88-1.1H6.8s-.06,0-.06.12v1.76Zm.94.57h0a1.06,1.06,0,0,0-.59-.18H6.78s0,0,0,0v1.68c0,.47,0,.59.25.68a1.24,1.24,0,0,0,.52.09.83.83,0,0,0,.86-.91A1.68,1.68,0,0,0,7.68,82Z"/><path class="cls-2" d="M10.61,82.8s0,0-.07.06l-.38,1a1.41,1.41,0,0,0-.11.43c0,.13.07.22.29.22h.1c.09,0,.11,0,.11.06s0,.07-.12.07l-.75,0-.84,0c-.09,0-.14,0-.14-.07s0-.06.09-.06H9c.33,0,.46-.29.6-.64l1.79-4.47c.08-.2.12-.28.2-.28s.1.06.17.23c.17.39,1.31,3.29,1.77,4.37.27.64.47.74.62.77l.3,0c.06,0,.09,0,.09.06s-.06.07-.32.07-.78,0-1.35,0c-.12,0-.21,0-.21,0s0-.06.1-.07a.11.11,0,0,0,.06-.16l-.57-1.51a.07.07,0,0,0-.07,0Zm1.45-.35h0s0,0,0,0l-.64-1.76s0-.06,0-.06,0,0,0,.06l-.66,1.75s0,0,0,0Z"/><path class="cls-2" d="M15.34,83.69c0,.56.11.74.25.79a1.22,1.22,0,0,0,.37,0c.08,0,.12,0,.12.06s-.06.07-.16.07c-.46,0-.75,0-.88,0l-.77,0c-.09,0-.16,0-.16-.07s.05-.06.12-.06a1.22,1.22,0,0,0,.32,0c.18,0,.21-.26.22-.88l.06-4.21c0-.14,0-.24.09-.24s.14.1.27.22,1.16,1.26,2.2,2.29c.48.48,1.44,1.5,1.56,1.62h0l-.07-3.19c0-.44-.07-.57-.24-.65a1.26,1.26,0,0,0-.38,0c-.09,0-.11,0-.11-.06s.07-.07.18-.07c.37,0,.71,0,.86,0s.35,0,.7,0c.09,0,.16,0,.16.07s0,.06-.13.06a.78.78,0,0,0-.21,0c-.2.06-.26.21-.26.61l-.08,4.48c0,.16,0,.22-.09.22a.42.42,0,0,1-.25-.15L17,82.5c-.78-.77-1.57-1.66-1.69-1.79h0l.08,3Z"/><path class="cls-2" d="M21.41,81.64l.33.28,1.74-1.71a.77.77,0,0,0,.28-.45c0-.14-.09-.23-.28-.29s-.08-.16.07-.16h1.78c.16,0,.16.15,0,.15h-.17a1.34,1.34,0,0,0-.55.16,2.14,2.14,0,0,0-.57.43l-1.66,1.64,2.21,2.23a1.48,1.48,0,0,0,.86.55c.19,0,.2.17,0,.17h-.87c-.4,0-.5-.14-.78-.43L21.65,82l-.17-.16c-.15,0-.25-.11-.07-.22Z"/><path class="cls-2" d="M20.85,81.35c0-1.08,0-1.28,0-1.51s-.08-.36-.24-.4a1.07,1.07,0,0,0-.25,0c-.08,0-.12,0-.12-.07s.06-.06.17-.06l.93,0,.86,0q.15,0,.15.06c0,.06,0,.07-.11.07l-.21,0c-.2,0-.25.16-.27.41s0,.43,0,1.51V82.6c0,.69,0,1.25,0,1.55s.07.32.28.35a2.19,2.19,0,0,0,.36,0q.12,0,.12.06s-.06.07-.14.07l-1.11,0-.89,0c-.09,0-.14,0-.14-.07s0-.06.11-.06a.93.93,0,0,0,.26,0c.14,0,.18-.15.2-.35a15.46,15.46,0,0,0,0-1.55V81.35Z"/><path class="cls-2" d="M40,82.8s-.05,0-.07.06l-.38,1a1.41,1.41,0,0,0-.11.43c0,.13.07.22.29.22h.1c.09,0,.11,0,.11.06s0,.07-.12.07l-.75,0-.84,0c-.1,0-.14,0-.14-.07s0-.06.09-.06h.22c.32,0,.46-.29.6-.64l1.79-4.47c.08-.2.12-.28.19-.28s.11.06.18.23c.17.39,1.31,3.29,1.77,4.37.27.64.47.74.62.77l.3,0c.06,0,.09,0,.09.06s-.06.07-.32.07-.78,0-1.35,0c-.13,0-.21,0-.21,0s0-.06.1-.07a.11.11,0,0,0,.06-.16l-.57-1.51a.07.07,0,0,0-.07,0Zm1.45-.35h0s0,0,0,0l-.64-1.76s0-.06,0-.06,0,0,0,.06l-.65,1.75s0,0,0,0Z"/><path class="cls-2" d="M29.94,81.35c0-1.08,0-1.28,0-1.51s-.08-.36-.24-.4a1.07,1.07,0,0,0-.25,0c-.08,0-.12,0-.12-.07s.06-.06.17-.06l.93,0,.86,0q.15,0,.15.06c0,.06,0,.07-.11.07l-.21,0c-.2,0-.25.16-.27.41s0,.43,0,1.51V82.6c0,.69,0,1.25,0,1.55s.07.32.28.35a2.19,2.19,0,0,0,.36,0q.12,0,.12.06s-.06.07-.14.07l-1.11,0-.89,0c-.09,0-.14,0-.14-.07s0-.06.11-.06a.93.93,0,0,0,.26,0c.14,0,.18-.15.2-.35a15.46,15.46,0,0,0,0-1.55V81.35Z"/><path class="cls-2" d="M31.85,84.57c-.11,0-.13-.08-.13-.24,0-.39,0-.82,0-.93s0-.18.09-.18.07.06.07.12a1.8,1.8,0,0,0,.06.36,1,1,0,0,0,1,.72.86.86,0,0,0,.95-.81c0-.35-.1-.69-.69-1.14l-.33-.26a2.11,2.11,0,0,1-1.05-1.68c0-.78.65-1.34,1.64-1.34a3.37,3.37,0,0,1,.94.12c.07,0,.1,0,.1.08s0,.3,0,.85c0,.16,0,.22-.08.22s-.07,0-.07-.13a.92.92,0,0,0-1-.82.75.75,0,0,0-.85.73c0,.33.16.58.75,1l.2.15c.86.66,1.17,1.13,1.17,1.81A1.45,1.45,0,0,1,34,84.47a2.1,2.1,0,0,1-1.13.29,2.42,2.42,0,0,1-1-.19Z"/><path class="cls-2" d="M36.28,82.6c0,.91,0,1.4.14,1.53s.31.15.86.15c.38,0,.66,0,.84-.2a.88.88,0,0,0,.18-.42c0-.07,0-.11.08-.11s.06,0,.06.12a5.33,5.33,0,0,1-.11.82c0,.15-.08.19-.45.19-1,0-1.49,0-2.07,0l-.89,0c-.09,0-.14,0-.14-.07s0-.06.11-.06a.93.93,0,0,0,.26,0c.14,0,.17-.18.2-.39a15,15,0,0,0,0-1.51V81.35c0-1.08,0-1.28,0-1.51s-.07-.36-.3-.41l-.24,0c-.08,0-.12,0-.12-.06s0-.07.16-.07c.33,0,.78,0,1,0l1,0c.1,0,.15,0,.15.07s0,.06-.13.06l-.28,0c-.19,0-.25.16-.26.41s0,.43,0,1.51V82.6Z"/><path class="cls-2" d="M44.78,79.31c0-.12.07-.18.12-.18s.1,0,.19.22l1.95,4L49,79.3c.05-.11.09-.17.16-.17s.1.07.12.22l.65,4.39c.06.45.14.66.35.72a1.57,1.57,0,0,0,.44.07c.06,0,.11,0,.11,0s-.08.08-.18.08-1.16,0-1.44,0-.21,0-.21-.08,0-.06.08-.08.06-.11,0-.31L48.66,81h0l-1.55,3.22c-.16.34-.2.4-.26.4s-.14-.14-.25-.35-.74-1.42-.82-1.62-.49-1-.74-1.58h0l-.37,2.83c0,.13,0,.22,0,.34a.22.22,0,0,0,.21.22,1.37,1.37,0,0,0,.3,0c.06,0,.11,0,.11,0s-.06.08-.17.08l-.75,0-.7,0c-.07,0-.13,0-.13-.08s0,0,.11,0l.22,0c.2,0,.25-.32.29-.56l.7-4.64Z"/><path class="cls-2" d="M34.62,87c-4.38,0-7.95-2.46-8-5.29s3.35-4.87,7.51-4.81a12.3,12.3,0,0,1,1.5.12,12.63,12.63,0,0,0-2.07-.2c-4.41-.07-8,2.15-8,5s3.79,5.51,8.46,5.57c3.79,0,6.87-1.56,7.73-3.77-.93,2-3.73,3.39-7.16,3.34Z"/><path class="cls-2" d="M1.11,79.15a.74.74,0,0,1,.34-.08.77.77,0,0,1,.4.11.79.79,0,0,1,.29.31,1,1,0,0,1,.1.47,1,1,0,0,1-.1.47.82.82,0,0,1-.29.32.69.69,0,0,1-.4.11.71.71,0,0,1-.34-.07.68.68,0,0,1-.24-.2v.25H.43V78.51H.87v.84A.68.68,0,0,1,1.11,79.15Zm.62.54a.42.42,0,0,0-.17-.18.46.46,0,0,0-.23-.06.44.44,0,0,0-.22.07.46.46,0,0,0-.17.17A.51.51,0,0,0,.87,80a.5.5,0,0,0,.07.27.42.42,0,0,0,.17.18.43.43,0,0,0,.22.06.39.39,0,0,0,.23-.07.46.46,0,0,0,.17-.17A.61.61,0,0,0,1.79,80,.57.57,0,0,0,1.73,79.69Z"/><path class="cls-2" d="M4.22,79.1,3.15,81.66H2.68l.38-.87-.7-1.69h.49l.45,1.21.46-1.21Z"/></svg>